<?xml version="1.0" encoding="UTF-8" standalone="no"?>
<svg
   xmlns:dc="http://purl.org/dc/elements/1.1/"
   xmlns:cc="http://creativecommons.org/ns#"
   xmlns:rdf="http://www.w3.org/1999/02/22-rdf-syntax-ns#"
   xmlns:svg="http://www.w3.org/2000/svg"
   xmlns="http://www.w3.org/2000/svg"
   xmlns:sodipodi="http://sodipodi.sourceforge.net/DTD/sodipodi-0.dtd"
   xmlns:inkscape="http://www.inkscape.org/namespaces/inkscape"
   height="24"
   viewBox="0 0 24 24"
   width="24"
   version="1.1"
   id="svg10"
   sodipodi:docname="streetview-24px.svg"
   inkscape:version="0.92.4 (5da689c313, 2019-01-14)">
  <metadata
     id="metadata16">
    <rdf:RDF>
      <cc:Work
         rdf:about="">
        <dc:format>image/svg+xml</dc:format>
        <dc:type
           rdf:resource="http://purl.org/dc/dcmitype/StillImage" />
      </cc:Work>
    </rdf:RDF>
  </metadata>
  <defs
     id="defs14" />
  <sodipodi:namedview
     pagecolor="#ffffff"
     bordercolor="#666666"
     borderopacity="1"
     objecttolerance="10"
     gridtolerance="10"
     guidetolerance="10"
     inkscape:pageopacity="0"
     inkscape:pageshadow="2"
     inkscape:window-width="760"
     inkscape:window-height="480"
     id="namedview12"
     showgrid="false"
     inkscape:zoom="9.8333333"
     inkscape:cx="12.092542"
     inkscape:cy="12"
     inkscape:window-x="483"
     inkscape:window-y="38"
     inkscape:window-maximized="0"
     inkscape:current-layer="svg10" />
  <path
     d="M0 0h24v24H0z"
     fill="none"
     id="path2" />
  <path
     d="M12.56 14.33c-.34.27-.56.7-.56 1.17V21h7c1.1 0 2-.9 2-2v-5.98c-.94-.33-1.95-.52-3-.52-2.03 0-3.93.7-5.44 1.83z"
     id="path4"
     style="fill:#57b100;fill-opacity:1" />
  <circle
     cx="18"
     cy="6"
     r="5"
     id="circle6"
     style="fill:#57b100;fill-opacity:1" />
  <path
     d="M11.5 6c0-1.08.27-2.1.74-3H5c-1.1 0-2 .9-2 2v14c0 .55.23 1.05.59 1.41l9.82-9.82C12.23 9.42 11.5 7.8 11.5 6z"
     id="path8"
     style="fill:#57b100;fill-opacity:1" />
</svg>
